<svg
              xmlns="http://www.w3.org/2000/svg"
              height="64px"
              viewBox="0 -960 960 960"
              width="64px"
              fill="url(#grad)"
            >
              <defs>
                <linearGradient id="grad" x1="0%" y1="0%" x2="100%" y2="100%">
                  <stop offset="0%" stop-color="#6AFFFF" />
                  <stop offset="20%" stop-color="#63DBFF" />
                  <stop offset="80%" stop-color="#5A97EE" />
                  <stop offset="100%" stop-color="#385274" />
                </linearGradient>
              </defs>
              <path
                d="M260-40q-24 0-42-18t-18-42v-760q0-24 18-42t42-18h440q24 0 42 18t18 42v760q0 24-18 42t-42 18H260Zm0-150v90h440v-90H260Zm220.18 75q12.82 0 21.32-8.68 8.5-8.67 8.5-21.5 0-12.82-8.68-21.32-8.67-8.5-21.5-8.5-12.82 0-21.32 8.68-8.5 8.67-8.5 21.5 0 12.82 8.68 21.32 8.67 8.5 21.5 8.5ZM260-250h440v-520H260v520Zm0-580h440v-30H260v30Zm0 640v90-90Zm0-640v-30 30Z"
              ></path>
            </svg>