<svg
                xmlns="http://www.w3.org/2000/svg"
                height="40px"
                viewBox="0 -960 960 960"
                width="40px"
                fill="url(#grad)"
              >
                <defs>
                  <linearGradient id="grad" x1="0%" y1="0%" x2="100%" y2="100%">
                    <stop offset="0%" stop-color="#6AFFFF" />
                    <stop offset="20%" stop-color="#63DBFF" />
                    <stop offset="80%" stop-color="#5A97EE" />
                    <stop offset="100%" stop-color="#385274" />
                  </linearGradient>
                </defs>
                <path
                  d="M480-480q33 0 56.5-23.5T560-560q0-33-23.5-56.5T480-640q-33 0-56.5 23.5T400-560q0 33 23.5 56.5T480-480Zm0 294q122-112 181-203.5T720-552q0-109-69.5-178.5T480-800q-101 0-170.5 69.5T240-552q0 71 59 162.5T480-186Zm0 106Q319-217 239.5-334.5T160-552q0-150 96.5-239T480-880q127 0 223.5 89T800-552q0 100-79.5 217.5T480-80Zm0-480Z"
                />
              </svg>