<svg
              xmlns="http://www.w3.org/2000/svg"
              height="50px"
              viewBox="0 -960 960 960"
              width="50px"
              fill="url(#grad)"
            >
              <defs>
                <linearGradient id="grad" x1="0%" y1="0%" x2="100%" y2="100%">
                  <stop offset="0%" stop-color="#6AFFFF" />
                  <stop offset="20%" stop-color="#63DBFF" />
                  <stop offset="80%" stop-color="#5A97EE" />
                  <stop offset="100%" stop-color="#385274" />
                </linearGradient>
              </defs>
              <path
                d="m262-300 58-100q-66 0-113-47t-47-113q0-66 47-113t113-47q66 0 113 47t47 113q0 23-5.5 42.5T458-480L331-260q-5 9-14 14.5t-20 5.5q-23 0-34.5-20t-.5-40Zm360 0 58-100q-66 0-113-47t-47-113q0-66 47-113t113-47q66 0 113 47t47 113q0 23-5.5 42.5T818-480L691-260q-5 9-14 14.5t-20 5.5q-23 0-34.5-20t-.5-40Z"
              />
            </svg>